HIERARCHY
ROOT hip
{
	OFFSET 0.000000 0.000000 0.000000 
	CHANNELS 6 Xposition Yposition Zposition Xrotation Zrotation Yrotation
	JOINT abdomen
	{
		OFFSET 0.000000 3.402643 0.000000 
		CHANNELS 3 Xrotation Zrotation Yrotation
		JOINT chest
		{
			OFFSET 0.000000 8.438565 -0.680529 
			CHANNELS 3 Xrotation Zrotation Yrotation
			JOINT neck
			{
				OFFSET 0.000000 10.207942 -0.272212 
				CHANNELS 3 Xrotation Zrotation Yrotation
				JOINT head
				{
					OFFSET 0.000000 3.130431 0.000000 
					CHANNELS 3 Xrotation Zrotation Yrotation
					End Site
					{
						OFFSET 0.000000 3.130435 0.000000 
					}
				}
			}
			JOINT lCollar
			{
				OFFSET 3.470700 6.669187 -0.816635 
				CHANNELS 3 Yrotation Zrotation Xrotation
				JOINT lShldr
				{
					OFFSET 3.198488 0.000000 0.000000 
					CHANNELS 3 Zrotation Yrotation Xrotation
					JOINT lForeArm
					{
						OFFSET 10.139888 0.000000 0.000000 
						CHANNELS 3 Yrotation Zrotation Xrotation
						JOINT lHand
						{
							OFFSET 8.370511 0.000000 0.000000 
							CHANNELS 3 Zrotation Yrotation Xrotation
							End Site
							{
								OFFSET 4.083176 0.000000 0.000000 
							}
						}
					}
				}
			}
			JOINT rCollar
			{
				OFFSET -3.470700 6.669187 -0.816635 
				CHANNELS 3 Yrotation Zrotation Xrotation
				JOINT rShldr
				{
					OFFSET -3.198488 0.000000 0.000000 
					CHANNELS 3 Zrotation Yrotation Xrotation
					JOINT rForeArm
					{
						OFFSET -10.139888 0.000000 0.000000 
						CHANNELS 3 Yrotation Zrotation Xrotation
						JOINT rHand
						{
							OFFSET -8.370511 0.000000 0.000000 
							CHANNELS 3 Zrotation Yrotation Xrotation
							End Site
							{
								OFFSET -4.083176 0.000000 0.000000 
							}
						}
					}
				}
			}
		}
	}
	JOINT lThigh
	{
		OFFSET 5.308129 -1.633274 1.361059 
		CHANNELS 3 Xrotation Zrotation Yrotation
		JOINT lShin
		{
			OFFSET -2.041588 -20.007561 0.000000 
			CHANNELS 3 Xrotation Zrotation Yrotation
			JOINT lFoot
			{
				OFFSET 0.000000 -19.190928 -1.224953 
				CHANNELS 3 Xrotation Yrotation Zrotation
				End Site
				{
					OFFSET 0.000000 -2.449906 4.627600 
				}
			}
		}
	}
	JOINT rThigh
	{
		OFFSET -5.308129 -1.633274 1.361059 
		CHANNELS 3 Xrotation Zrotation Yrotation
		JOINT rShin
		{
			OFFSET 2.041588 -20.007561 0.000000 
			CHANNELS 3 Xrotation Zrotation Yrotation
			JOINT rFoot
			{
				OFFSET 0.000000 -19.190928 -1.224953 
				CHANNELS 3 Xrotation Yrotation Zrotation
				End Site
				{
					OFFSET 0.000000 -2.449906 4.627600 
				}
			}
		}
	}
}
MOTION
Frames: 11
Frame Time: 0.016667
-0.588415 43.596645 1.315009 -0.665968 -4.335650 1.114660 -22.759501 3.600950 -0.514574 13.394300 3.565780 0.079818 16.508177 -4.059285 -16.363190 15.858700 11.213200 -2.145950 2.000000 -2.000000 0.000000 -92.967796 10.264000 167.761002 31.992500 -0.330800 0.072493 0.047385 -0.029583 -147.546997 -2.000000 2.000000 0.000000 85.621597 -7.465050 165.177994 -41.484798 0.317268 0.090567 -0.054949 0.013276 -141.667999 -0.915241 1.293248 0.568041 16.724106 4.046415 1.081474 -11.286926 -0.553403 -0.556959 0.694597 8.210518 1.235786 11.819101 -2.902357 -0.929589 -8.466850 -8.910164 -1.670567 
-0.565499 43.599083 1.328968 -0.597405 -4.325940 1.158220 -22.710800 3.584570 -0.641941 13.550200 3.644530 0.021439 16.321566 -4.157157 -16.218027 15.765100 11.121300 -2.172760 2.000000 -2.000000 0.000000 -93.055702 10.371100 167.623993 32.002300 -0.330788 0.072512 0.047415 -0.029745 -147.604996 -2.000000 2.000000 0.000000 85.670403 -7.962510 164.921997 -43.242599 0.314441 0.093667 -0.054907 0.012758 -141.481995 -0.967989 1.266787 0.667773 16.682955 4.050489 1.082267 -11.275232 -0.730822 -0.590734 0.650343 8.191700 1.276325 11.810033 -2.898298 -0.929315 -8.456169 -8.987140 -1.693630 
-0.541779 43.600758 1.352368 -0.597421 -4.345470 1.011930 -22.770000 3.589590 -0.711498 13.432300 3.701750 -0.012788 16.292547 -4.091761 -16.230793 15.736500 11.151200 -2.153050 2.000000 -2.000000 0.000000 -93.065697 10.800900 167.671005 32.178101 -0.330565 0.072868 0.047507 -0.030228 -147.781006 -2.000000 2.000000 0.000000 85.670601 -8.538540 164.862000 -44.961399 0.311587 0.096612 -0.054840 0.011885 -141.169998 -0.902285 1.274761 0.811487 16.625021 4.038736 1.071103 -11.276290 -0.721761 -0.575381 0.646855 8.191338 1.432491 11.924862 -2.923913 -0.939924 -8.543880 -9.004175 -1.687797 
-0.518060 43.602421 1.375766 -0.587642 -4.365010 0.855144 -22.829399 3.607020 -0.775746 13.324200 3.759000 -0.056374 16.264784 -4.009144 -16.234423 15.697500 11.172000 -2.137200 2.000000 -2.000000 0.000000 -93.065903 11.230700 167.718994 32.353901 -0.330341 0.073222 0.047596 -0.030685 -147.947006 -2.000000 2.000000 0.000000 85.670799 -9.124350 164.802994 -46.680099 0.308646 0.099470 -0.054777 0.011013 -140.856995 -0.844212 1.278576 0.925965 16.586014 4.035443 1.080572 -11.267268 -0.708298 -0.579460 0.666854 8.190139 1.571881 11.943649 -2.927624 -0.930274 -8.583851 -9.035306 -1.695003 
-0.485605 43.604225 1.394172 -0.567988 -4.277130 0.784432 -22.720400 3.544060 -0.805482 13.520300 3.712140 -0.066899 16.061535 -4.151027 -16.180182 15.623800 11.079200 -2.200880 2.000000 -2.000000 0.000000 -92.997597 11.270100 167.856003 32.353901 -0.330341 0.073222 0.047569 -0.030550 -147.897995 -2.000000 2.000000 0.000000 85.690201 -9.260730 164.656006 -48.301201 0.305795 0.102084 -0.054708 0.009948 -140.475998 -0.763066 1.152791 1.061116 16.434942 4.034873 1.070840 -11.196041 -0.748631 -0.577186 0.608670 8.060366 1.525514 12.082614 -2.939899 -0.958769 -8.586944 -8.932047 -1.680028 
-0.453148 43.605892 1.412573 -0.558139 -4.199020 0.714587 -22.611300 3.481010 -0.835380 13.706600 3.665130 -0.078373 15.859713 -4.279715 -16.130863 15.560200 10.986000 -2.270360 2.000000 -2.000000 0.000000 -92.929398 11.309500 168.001999 32.353901 -0.330341 0.073222 0.047543 -0.030416 -147.848999 -2.000000 2.000000 0.000000 85.709702 -9.387320 164.498993 -49.922298 0.302871 0.104616 -0.054646 0.008911 -140.104996 -0.670098 1.022223 1.205033 16.260733 4.044755 1.053659 -11.124386 -0.780591 -0.603260 0.491062 7.935541 1.461549 12.329182 -2.960475 -0.967127 -8.621459 -8.837749 -1.670100 
-0.422743 43.608463 1.429592 -0.538475 -4.081850 0.653468 -22.737700 3.439390 -0.889974 13.500700 3.721680 -0.118188 15.783461 -4.313342 -16.176771 15.481000 10.998700 -2.322410 2.000000 -2.000000 0.000000 -92.919998 11.778800 168.253006 32.422199 -0.330254 0.073360 0.047559 -0.030497 -147.878998 -2.000000 2.000000 0.000000 85.651299 -9.963220 164.380997 -51.621601 0.299730 0.107180 -0.054596 0.007955 -139.764008 -0.581504 0.863716 1.357085 16.118458 4.050307 1.054475 -11.057816 -0.875885 -0.617190 0.417264 7.780975 1.342818 12.503389 -2.986130 -0.957610 -8.714926 -8.732817 -1.640009 
-0.392341 43.611034 1.446612 -0.528609 -3.964680 0.583337 -22.864300 3.410220 -0.939125 13.294800 3.768450 -0.157182 15.718519 -4.337194 -16.227692 15.412200 11.020600 -2.370730 2.000000 -2.000000 0.000000 -92.910599 12.248200 168.505997 32.480801 -0.330179 0.073478 0.047575 -0.030577 -147.908005 -2.000000 2.000000 0.000000 85.583099 -10.529400 164.272003 -53.320801 0.296515 0.109650 -0.054551 0.006999 -139.421997 -0.494470 0.714458 1.519359 15.966245 4.051533 1.035254 -10.987705 -1.003894 -0.625479 0.366319 7.623211 1.247648 12.618165 -3.011960 -0.968503 -8.764217 -8.638654 -1.621177 
-0.371569 43.608601 1.445679 -0.489464 -3.984230 0.395256 -22.982800 3.452360 -0.964791 13.049300 3.853500 -0.174905 15.808047 -4.305933 -16.326044 15.444500 11.076900 -2.383050 2.000000 -2.000000 0.000000 -92.891502 12.688800 169.003006 32.627300 -0.329991 0.073773 0.047585 -0.030631 -147.927994 -2.000000 2.000000 0.000000 85.417198 -10.929700 164.242004 -54.854000 0.293552 0.111796 -0.054490 0.005414 -138.854996 -0.498250 0.720029 1.657218 15.946624 4.051075 1.045038 -10.922988 -0.966886 -0.606446 0.257366 7.619494 1.378977 12.740349 -3.007815 -0.985901 -8.767525 -8.592131 -1.609767 
-0.350797 43.606148 1.444758 -0.450323 -4.013550 0.197458 -23.101400 3.494420 -0.990634 12.803800 3.938390 -0.193358 15.907418 -4.282072 -16.438560 15.476700 11.133100 -2.385550 2.000000 -2.000000 0.000000 -92.862701 13.139200 169.490005 32.764000 -0.329814 0.074047 0.047596 -0.030685 -147.947006 -2.000000 2.000000 0.000000 85.251404 -11.320300 164.220993 -56.387199 0.290533 0.113862 -0.054445 0.003856 -138.298996 -0.499243 0.715521 1.794384 15.903279 4.061623 1.036992 -10.887835 -0.927585 -0.586649 0.162209 7.613461 1.521295 12.835943 -2.986314 -0.992574 -8.761419 -8.537866 -1.606094 
-0.323098 43.599083 1.463036 -0.460053 -3.906120 0.021502 -22.836901 3.485060 -0.989795 13.214700 3.971180 -0.188435 15.750761 -4.452396 -16.606892 15.514900 11.093200 -2.483290 2.000000 -2.000000 0.000000 -92.823700 12.915500 169.901001 32.822601 -0.329739 0.074165 0.047523 -0.030309 -147.809998 -2.000000 2.000000 0.000000 85.153503 -11.036600 164.016998 -58.018101 0.287262 0.115970 -0.054407 0.001696 -137.526993 -0.409234 0.549839 1.896441 15.791771 4.060762 1.017949 -10.867172 -0.822617 -0.578140 0.107461 7.441503 1.474451 13.026668 -2.988266 -1.009677 -8.845226 -8.338729 -1.582604 
